# xmcd
#
# Track frame offsets:
#	150
#	30086
#	40279
#	55918
#	78590
#	91465
#	107212
#	120655
#	137217
#	149611
#	159551
#	184426
#	200489
#	212206
#	234563
#	246327
#
# Disc length: 3563 seconds
#
# Revision: 0
# Processed by: cddbd v1.5.1PL0 Copyright (c) Steve Scherf et al.
# Submitted via: dBpowerAMP V4.0
#
DISCID=ee0de910
DTITLE=Various Artist - Puro Blues
DYEAR=1900
DGENRE=Blues
TTITLE0=Greg Smith - Young Men Don't Get the Blues
TTITLE1=John Lee Hooker - Dimples
TTITLE2=Rufus Thomas - Come Here Mama
TTITLE3=Memphis Slim - Lend Me Your Love
TTITLE4=Howling Wolf - Worried About You?
TTITLE5=Johnny Winter - Self Destruction Blues
TTITLE6=Muddy Waters - Hoochie, Coochie Man
TTITLE7=Bo Diddley - Mona (I Need You Baby)
TTITLE8=Lightnin' Hopkins - Sittin' Down Thinkin
TTITLE9=Mississippi John Hurt - Creole Belle
TTITLE10=Screamin' Jay Hawkins - Don't Fool With Me
TTITLE11=Skeleton Krew - Song for Frank
TTITLE12=Etta James - I'd Rather Go Blind
TTITLE13=Roberto Ciotti - Early on Sunday
TTITLE14=James Cotton - South Side Boogie
TTITLE15=The Electric Flag - I Was Robbed Last Night
EXTD=Divucsa  1988
EXTT0=
EXTT1=
EXTT2=
EXTT3=
EXTT4=
EXTT5=
EXTT6=
EXTT7=
EXTT8=
EXTT9=
EXTT10=
EXTT11=
EXTT12=
EXTT13=
EXTT14=
EXTT15=
PLAYORDER=
